<mxfile host="app.diagrams.net" agent="Mozilla/5.0 (Macintosh; Intel Mac OS X 10_15_7) AppleWebKit/605.1.15 (KHTML, like Gecko) Version/18.0.1 Safari/605.1.15" version="26.0.8">
  <diagram name="Page-1" id="-9PNna5isragapNatJbX">
    <mxGraphModel dx="1098" dy="2352" grid="1" gridSize="10" guides="1" tooltips="1" connect="1" arrows="1" fold="1" page="1" pageScale="1" pageWidth="850" pageHeight="1100" math="0" shadow="0">
      <root>
        <mxCell id="0" />
        <mxCell id="1" parent="0" />
        <mxCell id="NxOc04dK2FlnX5Qw7O3w-118" value="" style="rounded=0;whiteSpace=wrap;html=1;fillColor=#f5f5f5;fontColor=#333333;strokeColor=#666666;" vertex="1" parent="1">
          <mxGeometry x="770" y="-80" width="400" height="500" as="geometry" />
        </mxCell>
        <mxCell id="NxOc04dK2FlnX5Qw7O3w-102" value="&lt;font style=&quot;font-size: 16px;&quot;&gt;GraphRAG&lt;/font&gt;" style="rounded=1;whiteSpace=wrap;html=1;fillColor=#f8cecc;strokeColor=#b85450;verticalAlign=top;opacity=70;" vertex="1" parent="1">
          <mxGeometry x="793.25" y="70" width="350" height="150" as="geometry" />
        </mxCell>
        <mxCell id="NxOc04dK2FlnX5Qw7O3w-100" value="" style="rounded=0;whiteSpace=wrap;html=1;fillColor=#f5f5f5;fontColor=#333333;strokeColor=#666666;" vertex="1" parent="1">
          <mxGeometry x="30" y="420" width="740" height="70" as="geometry" />
        </mxCell>
        <mxCell id="nq_z7jHMgAaX9JTM60SF-1" value="" style="rounded=0;whiteSpace=wrap;html=1;fillColor=#f5f5f5;fontColor=#333333;strokeColor=#666666;" parent="1" vertex="1">
          <mxGeometry x="370" y="-80" width="400" height="500" as="geometry" />
        </mxCell>
        <mxCell id="NxOc04dK2FlnX5Qw7O3w-84" value="" style="shape=flexArrow;endArrow=classic;html=1;rounded=0;fillColor=#fff2cc;strokeColor=#d6b656;" edge="1" parent="1">
          <mxGeometry width="50" height="50" relative="1" as="geometry">
            <mxPoint x="527" y="180" as="sourcePoint" />
            <mxPoint x="527" y="320" as="targetPoint" />
          </mxGeometry>
        </mxCell>
        <mxCell id="nq_z7jHMgAaX9JTM60SF-9" style="rounded=0;orthogonalLoop=1;jettySize=auto;html=1;exitX=0.5;exitY=0;exitDx=0;exitDy=0;entryX=0.5;entryY=1;entryDx=0;entryDy=0;strokeColor=none;endArrow=none;endFill=0;" parent="1" edge="1">
          <mxGeometry relative="1" as="geometry">
            <mxPoint x="686.5" y="114" as="sourcePoint" />
            <mxPoint x="686.25" y="104" as="targetPoint" />
          </mxGeometry>
        </mxCell>
        <mxCell id="nq_z7jHMgAaX9JTM60SF-11" value="" style="rounded=0;whiteSpace=wrap;html=1;fillColor=#f5f5f5;fontColor=#333333;strokeColor=#666666;" parent="1" vertex="1">
          <mxGeometry x="30" y="-80" width="340" height="500" as="geometry" />
        </mxCell>
        <mxCell id="nq_z7jHMgAaX9JTM60SF-14" value="" style="group" parent="1" vertex="1" connectable="0">
          <mxGeometry x="110" y="20" width="170" height="281" as="geometry" />
        </mxCell>
        <mxCell id="nq_z7jHMgAaX9JTM60SF-15" value="" style="rounded=0;whiteSpace=wrap;html=1;dashed=1;dashPattern=8 8;labelPosition=center;verticalLabelPosition=top;align=center;verticalAlign=bottom;" parent="nq_z7jHMgAaX9JTM60SF-14" vertex="1">
          <mxGeometry width="170" height="281" as="geometry" />
        </mxCell>
        <mxCell id="nq_z7jHMgAaX9JTM60SF-16" value="&lt;font color=&quot;#000000&quot;&gt;GLM&lt;/font&gt;" style="rounded=1;whiteSpace=wrap;html=1;fontSize=16;labelBackgroundColor=none;fillColor=#fff2cc;strokeColor=#d6b656;" parent="nq_z7jHMgAaX9JTM60SF-14" vertex="1">
          <mxGeometry x="44" y="9" width="80" height="60" as="geometry" />
        </mxCell>
        <mxCell id="nq_z7jHMgAaX9JTM60SF-17" style="edgeStyle=orthogonalEdgeStyle;rounded=0;orthogonalLoop=1;jettySize=auto;html=1;exitX=0.5;exitY=0;exitDx=0;exitDy=0;" parent="nq_z7jHMgAaX9JTM60SF-14" source="nq_z7jHMgAaX9JTM60SF-19" target="nq_z7jHMgAaX9JTM60SF-16" edge="1">
          <mxGeometry relative="1" as="geometry" />
        </mxCell>
        <mxCell id="nq_z7jHMgAaX9JTM60SF-18" value="Train" style="edgeLabel;html=1;align=center;verticalAlign=middle;resizable=0;points=[];fontSize=16;" parent="nq_z7jHMgAaX9JTM60SF-17" vertex="1" connectable="0">
          <mxGeometry x="-0.2244" y="2" relative="1" as="geometry">
            <mxPoint as="offset" />
          </mxGeometry>
        </mxCell>
        <mxCell id="nq_z7jHMgAaX9JTM60SF-19" value="&lt;font color=&quot;#000000&quot;&gt;Preprocessed dataset&lt;/font&gt;" style="rounded=0;whiteSpace=wrap;html=1;fontSize=16;labelPosition=center;verticalLabelPosition=bottom;align=center;verticalAlign=top;labelBackgroundColor=none;" parent="nq_z7jHMgAaX9JTM60SF-14" vertex="1">
          <mxGeometry x="17" y="116" width="134.5" height="120" as="geometry" />
        </mxCell>
        <mxCell id="nq_z7jHMgAaX9JTM60SF-20" value="" style="group" parent="nq_z7jHMgAaX9JTM60SF-14" vertex="1" connectable="0">
          <mxGeometry x="36" y="133" width="100" height="84" as="geometry" />
        </mxCell>
        <mxCell id="nq_z7jHMgAaX9JTM60SF-21" style="edgeStyle=none;curved=1;rounded=0;orthogonalLoop=1;jettySize=auto;html=1;exitX=1;exitY=0.5;exitDx=0;exitDy=0;entryX=0;entryY=0.5;entryDx=0;entryDy=0;fontSize=12;startSize=8;endSize=8;endArrow=none;endFill=0;labelBackgroundColor=none;fontColor=default;strokeColor=#0B4D6A;" parent="nq_z7jHMgAaX9JTM60SF-20" edge="1">
          <mxGeometry relative="1" as="geometry">
            <mxPoint x="20" y="42" as="sourcePoint" />
            <mxPoint x="40" y="42" as="targetPoint" />
          </mxGeometry>
        </mxCell>
        <mxCell id="nq_z7jHMgAaX9JTM60SF-22" value="" style="ellipse;whiteSpace=wrap;html=1;aspect=fixed;fontSize=16;labelBackgroundColor=none;fillColor=#ffe6cc;strokeColor=#d79b00;" parent="nq_z7jHMgAaX9JTM60SF-20" vertex="1">
          <mxGeometry y="31" width="20" height="20" as="geometry" />
        </mxCell>
        <mxCell id="nq_z7jHMgAaX9JTM60SF-23" style="edgeStyle=none;curved=1;rounded=0;orthogonalLoop=1;jettySize=auto;html=1;exitX=1;exitY=0.5;exitDx=0;exitDy=0;entryX=0;entryY=0.5;entryDx=0;entryDy=0;fontSize=12;startSize=8;endSize=8;endArrow=none;endFill=0;labelBackgroundColor=none;fontColor=default;strokeColor=#0B4D6A;" parent="nq_z7jHMgAaX9JTM60SF-20" edge="1">
          <mxGeometry relative="1" as="geometry">
            <mxPoint x="60" y="42" as="sourcePoint" />
            <mxPoint x="80" y="42" as="targetPoint" />
          </mxGeometry>
        </mxCell>
        <mxCell id="nq_z7jHMgAaX9JTM60SF-24" value="" style="ellipse;whiteSpace=wrap;html=1;aspect=fixed;fontSize=16;labelBackgroundColor=none;fillColor=#ffe6cc;strokeColor=#d79b00;" parent="nq_z7jHMgAaX9JTM60SF-20" vertex="1">
          <mxGeometry x="40" y="31" width="20" height="20" as="geometry" />
        </mxCell>
        <mxCell id="nq_z7jHMgAaX9JTM60SF-25" value="" style="ellipse;whiteSpace=wrap;html=1;aspect=fixed;fontSize=16;labelBackgroundColor=none;fillColor=#ffe6cc;strokeColor=#d79b00;" parent="nq_z7jHMgAaX9JTM60SF-20" vertex="1">
          <mxGeometry x="80" y="31" width="20" height="20" as="geometry" />
        </mxCell>
        <mxCell id="nq_z7jHMgAaX9JTM60SF-26" value="" style="ellipse;whiteSpace=wrap;html=1;aspect=fixed;fontSize=16;labelBackgroundColor=none;fillColor=#dae8fc;strokeColor=#6c8ebf;" parent="nq_z7jHMgAaX9JTM60SF-20" vertex="1">
          <mxGeometry y="64" width="20" height="20" as="geometry" />
        </mxCell>
        <mxCell id="nq_z7jHMgAaX9JTM60SF-27" value="" style="ellipse;whiteSpace=wrap;html=1;aspect=fixed;fontSize=16;labelBackgroundColor=none;fillColor=#dae8fc;strokeColor=#6c8ebf;" parent="nq_z7jHMgAaX9JTM60SF-20" vertex="1">
          <mxGeometry x="40" y="64" width="20" height="20" as="geometry" />
        </mxCell>
        <mxCell id="nq_z7jHMgAaX9JTM60SF-28" style="edgeStyle=orthogonalEdgeStyle;rounded=0;orthogonalLoop=1;jettySize=auto;html=1;exitX=0.5;exitY=1;exitDx=0;exitDy=0;entryX=0.5;entryY=0;entryDx=0;entryDy=0;endArrow=none;endFill=0;" parent="nq_z7jHMgAaX9JTM60SF-20" source="nq_z7jHMgAaX9JTM60SF-24" target="nq_z7jHMgAaX9JTM60SF-27" edge="1">
          <mxGeometry relative="1" as="geometry" />
        </mxCell>
        <mxCell id="nq_z7jHMgAaX9JTM60SF-29" value="" style="ellipse;whiteSpace=wrap;html=1;aspect=fixed;fontSize=16;labelBackgroundColor=none;fillColor=#dae8fc;strokeColor=#6c8ebf;" parent="nq_z7jHMgAaX9JTM60SF-20" vertex="1">
          <mxGeometry x="80" y="64" width="20" height="20" as="geometry" />
        </mxCell>
        <mxCell id="nq_z7jHMgAaX9JTM60SF-30" style="edgeStyle=orthogonalEdgeStyle;rounded=0;orthogonalLoop=1;jettySize=auto;html=1;exitX=0.5;exitY=1;exitDx=0;exitDy=0;entryX=0.5;entryY=0;entryDx=0;entryDy=0;endArrow=none;endFill=0;" parent="nq_z7jHMgAaX9JTM60SF-20" source="nq_z7jHMgAaX9JTM60SF-25" target="nq_z7jHMgAaX9JTM60SF-29" edge="1">
          <mxGeometry relative="1" as="geometry" />
        </mxCell>
        <mxCell id="nq_z7jHMgAaX9JTM60SF-31" value="" style="ellipse;whiteSpace=wrap;html=1;aspect=fixed;fontSize=16;labelBackgroundColor=none;fillColor=#dae8fc;strokeColor=#6c8ebf;" parent="nq_z7jHMgAaX9JTM60SF-20" vertex="1">
          <mxGeometry x="1" width="20" height="20" as="geometry" />
        </mxCell>
        <mxCell id="nq_z7jHMgAaX9JTM60SF-32" style="edgeStyle=orthogonalEdgeStyle;rounded=0;orthogonalLoop=1;jettySize=auto;html=1;exitX=0.5;exitY=0;exitDx=0;exitDy=0;entryX=0.5;entryY=1;entryDx=0;entryDy=0;endArrow=none;endFill=0;" parent="nq_z7jHMgAaX9JTM60SF-20" source="nq_z7jHMgAaX9JTM60SF-22" target="nq_z7jHMgAaX9JTM60SF-31" edge="1">
          <mxGeometry relative="1" as="geometry" />
        </mxCell>
        <mxCell id="nq_z7jHMgAaX9JTM60SF-33" value="" style="ellipse;whiteSpace=wrap;html=1;aspect=fixed;fontSize=16;labelBackgroundColor=none;fillColor=#dae8fc;strokeColor=#6c8ebf;" parent="nq_z7jHMgAaX9JTM60SF-20" vertex="1">
          <mxGeometry x="39.75" y="1" width="20" height="20" as="geometry" />
        </mxCell>
        <mxCell id="nq_z7jHMgAaX9JTM60SF-34" value="" style="ellipse;whiteSpace=wrap;html=1;aspect=fixed;fontSize=16;labelBackgroundColor=none;fillColor=#dae8fc;strokeColor=#6c8ebf;" parent="nq_z7jHMgAaX9JTM60SF-20" vertex="1">
          <mxGeometry x="79" width="20" height="20" as="geometry" />
        </mxCell>
        <mxCell id="nq_z7jHMgAaX9JTM60SF-35" style="rounded=0;orthogonalLoop=1;jettySize=auto;html=1;exitX=0.5;exitY=0;exitDx=0;exitDy=0;entryX=0.5;entryY=1;entryDx=0;entryDy=0;strokeColor=none;endArrow=none;endFill=0;" parent="nq_z7jHMgAaX9JTM60SF-20" source="nq_z7jHMgAaX9JTM60SF-24" target="nq_z7jHMgAaX9JTM60SF-33" edge="1">
          <mxGeometry relative="1" as="geometry" />
        </mxCell>
        <mxCell id="nq_z7jHMgAaX9JTM60SF-36" value="" style="endArrow=none;html=1;rounded=0;entryX=0.5;entryY=1;entryDx=0;entryDy=0;exitX=0.5;exitY=0;exitDx=0;exitDy=0;" parent="nq_z7jHMgAaX9JTM60SF-20" source="nq_z7jHMgAaX9JTM60SF-24" target="nq_z7jHMgAaX9JTM60SF-33" edge="1">
          <mxGeometry width="50" height="50" relative="1" as="geometry">
            <mxPoint x="-194" y="123" as="sourcePoint" />
            <mxPoint x="-144" y="73" as="targetPoint" />
          </mxGeometry>
        </mxCell>
        <mxCell id="nq_z7jHMgAaX9JTM60SF-37" style="edgeStyle=orthogonalEdgeStyle;rounded=0;orthogonalLoop=1;jettySize=auto;html=1;exitX=0.5;exitY=0;exitDx=0;exitDy=0;entryX=0.5;entryY=1;entryDx=0;entryDy=0;endArrow=none;endFill=0;" parent="nq_z7jHMgAaX9JTM60SF-20" source="nq_z7jHMgAaX9JTM60SF-25" target="nq_z7jHMgAaX9JTM60SF-34" edge="1">
          <mxGeometry relative="1" as="geometry" />
        </mxCell>
        <mxCell id="nq_z7jHMgAaX9JTM60SF-38" value="" style="endArrow=none;html=1;rounded=0;entryX=0.5;entryY=1;entryDx=0;entryDy=0;" parent="nq_z7jHMgAaX9JTM60SF-20" source="nq_z7jHMgAaX9JTM60SF-26" target="nq_z7jHMgAaX9JTM60SF-22" edge="1">
          <mxGeometry width="50" height="50" relative="1" as="geometry">
            <mxPoint x="-194" y="123" as="sourcePoint" />
            <mxPoint x="-144" y="73" as="targetPoint" />
          </mxGeometry>
        </mxCell>
        <mxCell id="nq_z7jHMgAaX9JTM60SF-39" value="&lt;font style=&quot;font-size: 16px;&quot;&gt;Pubmed papers&lt;/font&gt;" style="rounded=0;whiteSpace=wrap;html=1;fillColor=#ffe6cc;strokeColor=#d79b00;" parent="1" vertex="1">
          <mxGeometry x="195" y="320" width="130" height="60" as="geometry" />
        </mxCell>
        <mxCell id="nq_z7jHMgAaX9JTM60SF-40" value="&lt;font style=&quot;font-size: 16px;&quot;&gt;UMLS: seed KG&lt;/font&gt;" style="rounded=0;whiteSpace=wrap;html=1;fillColor=#dae8fc;strokeColor=#6c8ebf;" parent="1" vertex="1">
          <mxGeometry x="65" y="320" width="130" height="60" as="geometry" />
        </mxCell>
        <mxCell id="nq_z7jHMgAaX9JTM60SF-43" value="&lt;font color=&quot;#000000&quot;&gt;Trained GLM&lt;/font&gt;" style="rounded=1;whiteSpace=wrap;html=1;fontSize=16;labelBackgroundColor=none;fillColor=#fff2cc;strokeColor=#d6b656;" parent="1" vertex="1">
          <mxGeometry x="485" y="-60.5" width="80" height="60" as="geometry" />
        </mxCell>
        <mxCell id="nq_z7jHMgAaX9JTM60SF-48" value="&lt;font style=&quot;font-size: 16px;&quot;&gt;LLM&lt;/font&gt;" style="rounded=1;whiteSpace=wrap;html=1;fillColor=#d5e8d4;strokeColor=#82b366;" parent="1" vertex="1">
          <mxGeometry x="488" y="230" width="80" height="59.5" as="geometry" />
        </mxCell>
        <mxCell id="nq_z7jHMgAaX9JTM60SF-69" value="&lt;font style=&quot;font-size: 18px;&quot;&gt;I. Train GLM&lt;/font&gt;" style="text;html=1;align=center;verticalAlign=middle;whiteSpace=wrap;rounded=0;" parent="1" vertex="1">
          <mxGeometry x="230" y="-70" width="130" height="30" as="geometry" />
        </mxCell>
        <mxCell id="nq_z7jHMgAaX9JTM60SF-70" value="&lt;font style=&quot;font-size: 18px;&quot;&gt;II (a). Extract &amp;amp; Filter&lt;/font&gt;" style="text;html=1;align=center;verticalAlign=middle;resizable=0;points=[];autosize=1;strokeColor=none;fillColor=none;" parent="1" vertex="1">
          <mxGeometry x="580" y="-70" width="190" height="30" as="geometry" />
        </mxCell>
        <mxCell id="NxOc04dK2FlnX5Qw7O3w-7" value="" style="group" vertex="1" connectable="0" parent="1">
          <mxGeometry x="526.5" y="-260" width="20" height="60" as="geometry" />
        </mxCell>
        <mxCell id="NxOc04dK2FlnX5Qw7O3w-3" value="" style="ellipse;whiteSpace=wrap;html=1;aspect=fixed;fontSize=16;labelBackgroundColor=none;fillColor=#ffe6cc;strokeColor=#d79b00;" vertex="1" parent="NxOc04dK2FlnX5Qw7O3w-7">
          <mxGeometry y="40" width="20" height="20" as="geometry" />
        </mxCell>
        <mxCell id="NxOc04dK2FlnX5Qw7O3w-4" value="" style="ellipse;whiteSpace=wrap;html=1;aspect=fixed;fontSize=16;labelBackgroundColor=none;fillColor=#dae8fc;strokeColor=#6c8ebf;" vertex="1" parent="NxOc04dK2FlnX5Qw7O3w-7">
          <mxGeometry width="20" height="20" as="geometry" />
        </mxCell>
        <mxCell id="NxOc04dK2FlnX5Qw7O3w-6" value="" style="edgeStyle=orthogonalEdgeStyle;rounded=0;orthogonalLoop=1;jettySize=auto;html=1;" edge="1" parent="NxOc04dK2FlnX5Qw7O3w-7" source="NxOc04dK2FlnX5Qw7O3w-3" target="NxOc04dK2FlnX5Qw7O3w-4">
          <mxGeometry relative="1" as="geometry" />
        </mxCell>
        <mxCell id="NxOc04dK2FlnX5Qw7O3w-65" value="" style="shape=flexArrow;endArrow=classic;html=1;rounded=0;fillColor=#fff2cc;strokeColor=#d6b656;" edge="1" parent="1">
          <mxGeometry width="50" height="50" relative="1" as="geometry">
            <mxPoint x="526" y="-0.5" as="sourcePoint" />
            <mxPoint x="526" y="99" as="targetPoint" />
          </mxGeometry>
        </mxCell>
        <mxCell id="NxOc04dK2FlnX5Qw7O3w-24" value="" style="group" vertex="1" connectable="0" parent="1">
          <mxGeometry x="468" y="109" width="60" height="72" as="geometry" />
        </mxCell>
        <mxCell id="NxOc04dK2FlnX5Qw7O3w-11" value="" style="group" vertex="1" connectable="0" parent="NxOc04dK2FlnX5Qw7O3w-24">
          <mxGeometry width="20" height="60" as="geometry" />
        </mxCell>
        <mxCell id="NxOc04dK2FlnX5Qw7O3w-12" value="" style="ellipse;whiteSpace=wrap;html=1;aspect=fixed;fontSize=16;labelBackgroundColor=none;fillColor=#ffe6cc;strokeColor=#d79b00;" vertex="1" parent="NxOc04dK2FlnX5Qw7O3w-11">
          <mxGeometry y="40" width="20" height="20" as="geometry" />
        </mxCell>
        <mxCell id="NxOc04dK2FlnX5Qw7O3w-13" value="" style="ellipse;whiteSpace=wrap;html=1;aspect=fixed;fontSize=16;labelBackgroundColor=none;fillColor=#dae8fc;strokeColor=#6c8ebf;" vertex="1" parent="NxOc04dK2FlnX5Qw7O3w-11">
          <mxGeometry width="20" height="20" as="geometry" />
        </mxCell>
        <mxCell id="NxOc04dK2FlnX5Qw7O3w-14" value="" style="edgeStyle=orthogonalEdgeStyle;rounded=0;orthogonalLoop=1;jettySize=auto;html=1;" edge="1" parent="NxOc04dK2FlnX5Qw7O3w-11" source="NxOc04dK2FlnX5Qw7O3w-12" target="NxOc04dK2FlnX5Qw7O3w-13">
          <mxGeometry relative="1" as="geometry" />
        </mxCell>
        <mxCell id="NxOc04dK2FlnX5Qw7O3w-15" value="" style="group" vertex="1" connectable="0" parent="NxOc04dK2FlnX5Qw7O3w-24">
          <mxGeometry x="20" y="12" width="20" height="60" as="geometry" />
        </mxCell>
        <mxCell id="NxOc04dK2FlnX5Qw7O3w-16" value="" style="ellipse;whiteSpace=wrap;html=1;aspect=fixed;fontSize=16;labelBackgroundColor=none;fillColor=#ffe6cc;strokeColor=#d79b00;" vertex="1" parent="NxOc04dK2FlnX5Qw7O3w-15">
          <mxGeometry y="40" width="20" height="20" as="geometry" />
        </mxCell>
        <mxCell id="NxOc04dK2FlnX5Qw7O3w-17" value="" style="ellipse;whiteSpace=wrap;html=1;aspect=fixed;fontSize=16;labelBackgroundColor=none;fillColor=#dae8fc;strokeColor=#6c8ebf;" vertex="1" parent="NxOc04dK2FlnX5Qw7O3w-15">
          <mxGeometry width="20" height="20" as="geometry" />
        </mxCell>
        <mxCell id="NxOc04dK2FlnX5Qw7O3w-18" value="" style="edgeStyle=orthogonalEdgeStyle;rounded=0;orthogonalLoop=1;jettySize=auto;html=1;" edge="1" parent="NxOc04dK2FlnX5Qw7O3w-15" source="NxOc04dK2FlnX5Qw7O3w-16" target="NxOc04dK2FlnX5Qw7O3w-17">
          <mxGeometry relative="1" as="geometry" />
        </mxCell>
        <mxCell id="NxOc04dK2FlnX5Qw7O3w-19" value="" style="group" vertex="1" connectable="0" parent="NxOc04dK2FlnX5Qw7O3w-24">
          <mxGeometry x="40" width="20" height="60" as="geometry" />
        </mxCell>
        <mxCell id="NxOc04dK2FlnX5Qw7O3w-20" value="" style="ellipse;whiteSpace=wrap;html=1;aspect=fixed;fontSize=16;labelBackgroundColor=none;fillColor=#ffe6cc;strokeColor=#d79b00;" vertex="1" parent="NxOc04dK2FlnX5Qw7O3w-19">
          <mxGeometry y="40" width="20" height="20" as="geometry" />
        </mxCell>
        <mxCell id="NxOc04dK2FlnX5Qw7O3w-21" value="" style="ellipse;whiteSpace=wrap;html=1;aspect=fixed;fontSize=16;labelBackgroundColor=none;fillColor=#dae8fc;strokeColor=#6c8ebf;" vertex="1" parent="NxOc04dK2FlnX5Qw7O3w-19">
          <mxGeometry width="20" height="20" as="geometry" />
        </mxCell>
        <mxCell id="NxOc04dK2FlnX5Qw7O3w-22" value="" style="edgeStyle=orthogonalEdgeStyle;rounded=0;orthogonalLoop=1;jettySize=auto;html=1;" edge="1" parent="NxOc04dK2FlnX5Qw7O3w-19" source="NxOc04dK2FlnX5Qw7O3w-20" target="NxOc04dK2FlnX5Qw7O3w-21">
          <mxGeometry relative="1" as="geometry" />
        </mxCell>
        <mxCell id="nq_z7jHMgAaX9JTM60SF-44" value="&lt;font style=&quot;font-size: 16px;&quot;&gt;Pubmed papers&lt;/font&gt;" style="rounded=0;whiteSpace=wrap;html=1;fillColor=#ffe6cc;strokeColor=#d79b00;" parent="1" vertex="1">
          <mxGeometry x="460" y="8" width="130" height="60" as="geometry" />
        </mxCell>
        <mxCell id="NxOc04dK2FlnX5Qw7O3w-52" value="" style="group" vertex="1" connectable="0" parent="1">
          <mxGeometry x="535" y="109" width="63" height="110" as="geometry" />
        </mxCell>
        <mxCell id="NxOc04dK2FlnX5Qw7O3w-53" value="" style="group" vertex="1" connectable="0" parent="NxOc04dK2FlnX5Qw7O3w-52">
          <mxGeometry width="63" height="110" as="geometry" />
        </mxCell>
        <mxCell id="NxOc04dK2FlnX5Qw7O3w-54" value="" style="ellipse;whiteSpace=wrap;html=1;aspect=fixed;fontSize=16;labelBackgroundColor=none;fillColor=#ffe6cc;strokeColor=#d79b00;" vertex="1" parent="NxOc04dK2FlnX5Qw7O3w-53">
          <mxGeometry x="-1" y="40" width="20" height="20" as="geometry" />
        </mxCell>
        <mxCell id="NxOc04dK2FlnX5Qw7O3w-55" value="" style="ellipse;whiteSpace=wrap;html=1;aspect=fixed;fontSize=16;labelBackgroundColor=none;fillColor=#dae8fc;strokeColor=#6c8ebf;" vertex="1" parent="NxOc04dK2FlnX5Qw7O3w-53">
          <mxGeometry width="20" height="20" as="geometry" />
        </mxCell>
        <mxCell id="NxOc04dK2FlnX5Qw7O3w-56" value="" style="edgeStyle=orthogonalEdgeStyle;rounded=0;orthogonalLoop=1;jettySize=auto;html=1;" edge="1" parent="NxOc04dK2FlnX5Qw7O3w-53" source="NxOc04dK2FlnX5Qw7O3w-54">
          <mxGeometry relative="1" as="geometry">
            <mxPoint x="9" y="20" as="targetPoint" />
          </mxGeometry>
        </mxCell>
        <mxCell id="NxOc04dK2FlnX5Qw7O3w-57" value="" style="group" vertex="1" connectable="0" parent="NxOc04dK2FlnX5Qw7O3w-52">
          <mxGeometry x="19" y="12" width="20" height="60" as="geometry" />
        </mxCell>
        <mxCell id="NxOc04dK2FlnX5Qw7O3w-58" value="" style="ellipse;whiteSpace=wrap;html=1;aspect=fixed;fontSize=16;labelBackgroundColor=none;fillColor=#ffe6cc;strokeColor=#d79b00;" vertex="1" parent="NxOc04dK2FlnX5Qw7O3w-57">
          <mxGeometry y="40" width="20" height="20" as="geometry" />
        </mxCell>
        <mxCell id="NxOc04dK2FlnX5Qw7O3w-59" value="" style="ellipse;whiteSpace=wrap;html=1;aspect=fixed;fontSize=16;labelBackgroundColor=none;fillColor=#dae8fc;strokeColor=#6c8ebf;" vertex="1" parent="NxOc04dK2FlnX5Qw7O3w-57">
          <mxGeometry width="20" height="20" as="geometry" />
        </mxCell>
        <mxCell id="NxOc04dK2FlnX5Qw7O3w-60" value="" style="edgeStyle=orthogonalEdgeStyle;rounded=0;orthogonalLoop=1;jettySize=auto;html=1;" edge="1" parent="NxOc04dK2FlnX5Qw7O3w-57" source="NxOc04dK2FlnX5Qw7O3w-58" target="NxOc04dK2FlnX5Qw7O3w-59">
          <mxGeometry relative="1" as="geometry" />
        </mxCell>
        <mxCell id="NxOc04dK2FlnX5Qw7O3w-61" value="" style="group" vertex="1" connectable="0" parent="NxOc04dK2FlnX5Qw7O3w-52">
          <mxGeometry x="40" width="20" height="60" as="geometry" />
        </mxCell>
        <mxCell id="NxOc04dK2FlnX5Qw7O3w-62" value="" style="ellipse;whiteSpace=wrap;html=1;aspect=fixed;fontSize=16;labelBackgroundColor=none;fillColor=#ffe6cc;strokeColor=#d79b00;" vertex="1" parent="NxOc04dK2FlnX5Qw7O3w-61">
          <mxGeometry x="-1" y="40" width="20" height="20" as="geometry" />
        </mxCell>
        <mxCell id="NxOc04dK2FlnX5Qw7O3w-63" value="" style="ellipse;whiteSpace=wrap;html=1;aspect=fixed;fontSize=16;labelBackgroundColor=none;fillColor=#dae8fc;strokeColor=#6c8ebf;" vertex="1" parent="NxOc04dK2FlnX5Qw7O3w-61">
          <mxGeometry width="20" height="20" as="geometry" />
        </mxCell>
        <mxCell id="NxOc04dK2FlnX5Qw7O3w-64" value="" style="edgeStyle=orthogonalEdgeStyle;rounded=0;orthogonalLoop=1;jettySize=auto;html=1;" edge="1" parent="NxOc04dK2FlnX5Qw7O3w-61" source="NxOc04dK2FlnX5Qw7O3w-62">
          <mxGeometry relative="1" as="geometry">
            <mxPoint x="9" y="20" as="targetPoint" />
          </mxGeometry>
        </mxCell>
        <mxCell id="NxOc04dK2FlnX5Qw7O3w-66" value="" style="group" vertex="1" connectable="0" parent="1">
          <mxGeometry x="350" y="-260" width="60" height="72" as="geometry" />
        </mxCell>
        <mxCell id="NxOc04dK2FlnX5Qw7O3w-67" value="" style="group" vertex="1" connectable="0" parent="NxOc04dK2FlnX5Qw7O3w-66">
          <mxGeometry width="20" height="60" as="geometry" />
        </mxCell>
        <mxCell id="NxOc04dK2FlnX5Qw7O3w-68" value="" style="ellipse;whiteSpace=wrap;html=1;aspect=fixed;fontSize=16;labelBackgroundColor=none;fillColor=#ffe6cc;strokeColor=#d79b00;" vertex="1" parent="NxOc04dK2FlnX5Qw7O3w-67">
          <mxGeometry y="40" width="20" height="20" as="geometry" />
        </mxCell>
        <mxCell id="NxOc04dK2FlnX5Qw7O3w-69" value="" style="ellipse;whiteSpace=wrap;html=1;aspect=fixed;fontSize=16;labelBackgroundColor=none;fillColor=#dae8fc;strokeColor=#6c8ebf;" vertex="1" parent="NxOc04dK2FlnX5Qw7O3w-67">
          <mxGeometry width="20" height="20" as="geometry" />
        </mxCell>
        <mxCell id="NxOc04dK2FlnX5Qw7O3w-70" value="" style="edgeStyle=orthogonalEdgeStyle;rounded=0;orthogonalLoop=1;jettySize=auto;html=1;" edge="1" parent="NxOc04dK2FlnX5Qw7O3w-67" source="NxOc04dK2FlnX5Qw7O3w-68" target="NxOc04dK2FlnX5Qw7O3w-69">
          <mxGeometry relative="1" as="geometry" />
        </mxCell>
        <mxCell id="NxOc04dK2FlnX5Qw7O3w-71" value="" style="group" vertex="1" connectable="0" parent="NxOc04dK2FlnX5Qw7O3w-66">
          <mxGeometry x="20" y="12" width="20" height="60" as="geometry" />
        </mxCell>
        <mxCell id="NxOc04dK2FlnX5Qw7O3w-72" value="" style="ellipse;whiteSpace=wrap;html=1;aspect=fixed;fontSize=16;labelBackgroundColor=none;fillColor=#ffe6cc;strokeColor=#d79b00;" vertex="1" parent="NxOc04dK2FlnX5Qw7O3w-71">
          <mxGeometry y="40" width="20" height="20" as="geometry" />
        </mxCell>
        <mxCell id="NxOc04dK2FlnX5Qw7O3w-73" value="" style="ellipse;whiteSpace=wrap;html=1;aspect=fixed;fontSize=16;labelBackgroundColor=none;fillColor=#dae8fc;strokeColor=#6c8ebf;" vertex="1" parent="NxOc04dK2FlnX5Qw7O3w-71">
          <mxGeometry width="20" height="20" as="geometry" />
        </mxCell>
        <mxCell id="NxOc04dK2FlnX5Qw7O3w-74" value="" style="edgeStyle=orthogonalEdgeStyle;rounded=0;orthogonalLoop=1;jettySize=auto;html=1;" edge="1" parent="NxOc04dK2FlnX5Qw7O3w-71" source="NxOc04dK2FlnX5Qw7O3w-72" target="NxOc04dK2FlnX5Qw7O3w-73">
          <mxGeometry relative="1" as="geometry" />
        </mxCell>
        <mxCell id="NxOc04dK2FlnX5Qw7O3w-75" value="" style="group" vertex="1" connectable="0" parent="NxOc04dK2FlnX5Qw7O3w-66">
          <mxGeometry x="40" width="20" height="60" as="geometry" />
        </mxCell>
        <mxCell id="NxOc04dK2FlnX5Qw7O3w-76" value="" style="ellipse;whiteSpace=wrap;html=1;aspect=fixed;fontSize=16;labelBackgroundColor=none;fillColor=#ffe6cc;strokeColor=#d79b00;" vertex="1" parent="NxOc04dK2FlnX5Qw7O3w-75">
          <mxGeometry y="40" width="20" height="20" as="geometry" />
        </mxCell>
        <mxCell id="NxOc04dK2FlnX5Qw7O3w-77" value="" style="ellipse;whiteSpace=wrap;html=1;aspect=fixed;fontSize=16;labelBackgroundColor=none;fillColor=#dae8fc;strokeColor=#6c8ebf;" vertex="1" parent="NxOc04dK2FlnX5Qw7O3w-75">
          <mxGeometry width="20" height="20" as="geometry" />
        </mxCell>
        <mxCell id="NxOc04dK2FlnX5Qw7O3w-78" value="" style="edgeStyle=orthogonalEdgeStyle;rounded=0;orthogonalLoop=1;jettySize=auto;html=1;" edge="1" parent="NxOc04dK2FlnX5Qw7O3w-75" source="NxOc04dK2FlnX5Qw7O3w-76" target="NxOc04dK2FlnX5Qw7O3w-77">
          <mxGeometry relative="1" as="geometry" />
        </mxCell>
        <mxCell id="NxOc04dK2FlnX5Qw7O3w-85" value="" style="group" vertex="1" connectable="0" parent="1">
          <mxGeometry x="500" y="320" width="60" height="72" as="geometry" />
        </mxCell>
        <mxCell id="NxOc04dK2FlnX5Qw7O3w-86" value="" style="group" vertex="1" connectable="0" parent="NxOc04dK2FlnX5Qw7O3w-85">
          <mxGeometry width="20" height="60" as="geometry" />
        </mxCell>
        <mxCell id="NxOc04dK2FlnX5Qw7O3w-87" value="" style="ellipse;whiteSpace=wrap;html=1;aspect=fixed;fontSize=16;labelBackgroundColor=none;fillColor=#ffe6cc;strokeColor=#d79b00;" vertex="1" parent="NxOc04dK2FlnX5Qw7O3w-86">
          <mxGeometry y="40" width="20" height="20" as="geometry" />
        </mxCell>
        <mxCell id="NxOc04dK2FlnX5Qw7O3w-88" value="" style="ellipse;whiteSpace=wrap;html=1;aspect=fixed;fontSize=16;labelBackgroundColor=none;fillColor=#dae8fc;strokeColor=#6c8ebf;" vertex="1" parent="NxOc04dK2FlnX5Qw7O3w-86">
          <mxGeometry width="20" height="20" as="geometry" />
        </mxCell>
        <mxCell id="NxOc04dK2FlnX5Qw7O3w-89" value="" style="edgeStyle=orthogonalEdgeStyle;rounded=0;orthogonalLoop=1;jettySize=auto;html=1;" edge="1" parent="NxOc04dK2FlnX5Qw7O3w-86" source="NxOc04dK2FlnX5Qw7O3w-87" target="NxOc04dK2FlnX5Qw7O3w-88">
          <mxGeometry relative="1" as="geometry" />
        </mxCell>
        <mxCell id="NxOc04dK2FlnX5Qw7O3w-90" value="" style="group" vertex="1" connectable="0" parent="NxOc04dK2FlnX5Qw7O3w-85">
          <mxGeometry x="20" y="12" width="20" height="60" as="geometry" />
        </mxCell>
        <mxCell id="NxOc04dK2FlnX5Qw7O3w-91" value="" style="ellipse;whiteSpace=wrap;html=1;aspect=fixed;fontSize=16;labelBackgroundColor=none;fillColor=#ffe6cc;strokeColor=#d79b00;" vertex="1" parent="NxOc04dK2FlnX5Qw7O3w-90">
          <mxGeometry y="40" width="20" height="20" as="geometry" />
        </mxCell>
        <mxCell id="NxOc04dK2FlnX5Qw7O3w-92" value="" style="ellipse;whiteSpace=wrap;html=1;aspect=fixed;fontSize=16;labelBackgroundColor=none;fillColor=#dae8fc;strokeColor=#6c8ebf;" vertex="1" parent="NxOc04dK2FlnX5Qw7O3w-90">
          <mxGeometry width="20" height="20" as="geometry" />
        </mxCell>
        <mxCell id="NxOc04dK2FlnX5Qw7O3w-93" value="" style="edgeStyle=orthogonalEdgeStyle;rounded=0;orthogonalLoop=1;jettySize=auto;html=1;" edge="1" parent="NxOc04dK2FlnX5Qw7O3w-90" source="NxOc04dK2FlnX5Qw7O3w-91" target="NxOc04dK2FlnX5Qw7O3w-92">
          <mxGeometry relative="1" as="geometry" />
        </mxCell>
        <mxCell id="NxOc04dK2FlnX5Qw7O3w-94" value="" style="group" vertex="1" connectable="0" parent="NxOc04dK2FlnX5Qw7O3w-85">
          <mxGeometry x="40" width="20" height="60" as="geometry" />
        </mxCell>
        <mxCell id="NxOc04dK2FlnX5Qw7O3w-95" value="" style="ellipse;whiteSpace=wrap;html=1;aspect=fixed;fontSize=16;labelBackgroundColor=none;fillColor=#ffe6cc;strokeColor=#d79b00;" vertex="1" parent="NxOc04dK2FlnX5Qw7O3w-94">
          <mxGeometry y="40" width="20" height="20" as="geometry" />
        </mxCell>
        <mxCell id="NxOc04dK2FlnX5Qw7O3w-96" value="" style="ellipse;whiteSpace=wrap;html=1;aspect=fixed;fontSize=16;labelBackgroundColor=none;fillColor=#dae8fc;strokeColor=#6c8ebf;" vertex="1" parent="NxOc04dK2FlnX5Qw7O3w-94">
          <mxGeometry width="20" height="20" as="geometry" />
        </mxCell>
        <mxCell id="NxOc04dK2FlnX5Qw7O3w-97" value="" style="edgeStyle=orthogonalEdgeStyle;rounded=0;orthogonalLoop=1;jettySize=auto;html=1;" edge="1" parent="NxOc04dK2FlnX5Qw7O3w-94" source="NxOc04dK2FlnX5Qw7O3w-95" target="NxOc04dK2FlnX5Qw7O3w-96">
          <mxGeometry relative="1" as="geometry" />
        </mxCell>
        <mxCell id="NxOc04dK2FlnX5Qw7O3w-98" value="&lt;font style=&quot;font-size: 16px;&quot;&gt;Filtered triples with multiotken tail&lt;/font&gt;" style="text;html=1;align=center;verticalAlign=middle;whiteSpace=wrap;rounded=0;" vertex="1" parent="1">
          <mxGeometry x="601" y="330" width="139" height="30" as="geometry" />
        </mxCell>
        <mxCell id="NxOc04dK2FlnX5Qw7O3w-82" value="&lt;font&gt;&lt;span&gt;Raw triples wtih one token tail&lt;/span&gt;&lt;/font&gt;" style="text;html=1;align=center;verticalAlign=middle;whiteSpace=wrap;rounded=0;fontSize=16;" vertex="1" parent="1">
          <mxGeometry x="608" y="126.5" width="122" height="26" as="geometry" />
        </mxCell>
        <mxCell id="NxOc04dK2FlnX5Qw7O3w-99" style="edgeStyle=orthogonalEdgeStyle;rounded=0;orthogonalLoop=1;jettySize=auto;html=1;exitX=0.5;exitY=1;exitDx=0;exitDy=0;entryX=0.5;entryY=1;entryDx=0;entryDy=0;strokeWidth=2;" edge="1" parent="1" source="NxOc04dK2FlnX5Qw7O3w-91" target="nq_z7jHMgAaX9JTM60SF-40">
          <mxGeometry relative="1" as="geometry">
            <Array as="points">
              <mxPoint x="530" y="450" />
              <mxPoint x="130" y="450" />
            </Array>
          </mxGeometry>
        </mxCell>
        <mxCell id="NxOc04dK2FlnX5Qw7O3w-101" value="&lt;font style=&quot;font-size: 18px;&quot;&gt;III. Expand the seed KG&lt;/font&gt;" style="text;html=1;align=center;verticalAlign=middle;resizable=0;points=[];autosize=1;strokeColor=none;fillColor=none;" vertex="1" parent="1">
          <mxGeometry x="555" y="424" width="210" height="30" as="geometry" />
        </mxCell>
        <mxCell id="NxOc04dK2FlnX5Qw7O3w-104" value="&lt;font style=&quot;font-size: 16px;&quot;&gt;Expanded KG&lt;/font&gt;" style="rounded=0;whiteSpace=wrap;html=1;fillColor=#dae8fc;strokeColor=#6c8ebf;" vertex="1" parent="1">
          <mxGeometry x="810" y="121" width="180" height="60" as="geometry" />
        </mxCell>
        <mxCell id="NxOc04dK2FlnX5Qw7O3w-108" value="" style="shape=flexArrow;endArrow=classic;html=1;rounded=0;fillColor=#fff2cc;strokeColor=#d6b656;" edge="1" parent="1">
          <mxGeometry width="50" height="50" relative="1" as="geometry">
            <mxPoint x="967.8299999999999" y="220" as="sourcePoint" />
            <mxPoint x="968" y="270" as="targetPoint" />
          </mxGeometry>
        </mxCell>
        <mxCell id="NxOc04dK2FlnX5Qw7O3w-112" value="" style="group" vertex="1" connectable="0" parent="1">
          <mxGeometry x="992.5" y="121" width="130" height="60" as="geometry" />
        </mxCell>
        <mxCell id="NxOc04dK2FlnX5Qw7O3w-109" value="&lt;font style=&quot;font-size: 16px;&quot;&gt;MCQ&lt;/font&gt;" style="rounded=0;whiteSpace=wrap;html=1;fillColor=#cdeb8b;strokeColor=#36393d;" vertex="1" parent="NxOc04dK2FlnX5Qw7O3w-112">
          <mxGeometry width="130" height="60" as="geometry" />
        </mxCell>
        <mxCell id="NxOc04dK2FlnX5Qw7O3w-110" value="" style="shape=image;html=1;verticalAlign=top;verticalLabelPosition=bottom;labelBackgroundColor=#ffffff;imageAspect=0;aspect=fixed;image=https://cdn0.iconfinder.com/data/icons/evericons-24px-vol-1/24/question-128.png" vertex="1" parent="NxOc04dK2FlnX5Qw7O3w-112">
          <mxGeometry x="92.5" y="10.75" width="34.5" height="34.5" as="geometry" />
        </mxCell>
        <mxCell id="NxOc04dK2FlnX5Qw7O3w-111" value="" style="image;sketch=0;aspect=fixed;html=1;points=[];align=center;fontSize=12;image=img/lib/mscae/Resource_Graph_Explorer.svg;" vertex="1" parent="1">
          <mxGeometry x="952" y="134.52" width="34.76" height="35.48" as="geometry" />
        </mxCell>
        <mxCell id="NxOc04dK2FlnX5Qw7O3w-115" value="&lt;font style=&quot;font-size: 16px;&quot;&gt;Accuracy:&lt;/font&gt;&lt;div&gt;&lt;font style=&quot;font-size: 16px;&quot;&gt;# correct answers&lt;/font&gt;&lt;/div&gt;" style="text;html=1;align=center;verticalAlign=middle;whiteSpace=wrap;rounded=0;" vertex="1" parent="1">
          <mxGeometry x="883.25" y="280" width="170" height="40" as="geometry" />
        </mxCell>
        <mxCell id="NxOc04dK2FlnX5Qw7O3w-116" value="" style="verticalLabelPosition=bottom;verticalAlign=top;html=1;shape=mxgraph.basic.donut;dx=10;strokeColor=none;fillColor=#10739E;fontSize=10;align=center;fillOpacity=20;" vertex="1" parent="1">
          <mxGeometry x="938.25" y="326" width="60" height="60" as="geometry" />
        </mxCell>
        <mxCell id="NxOc04dK2FlnX5Qw7O3w-117" value="%" style="verticalLabelPosition=middle;verticalAlign=middle;html=1;shape=mxgraph.basic.partConcEllipse;startAngle=0;endAngle=0.65;arcWidth=0.2;strokeColor=none;fillColor=#10739E;fontSize=22;fontColor=#10739E;align=center;fontStyle=1;whiteSpace=wrap;" vertex="1" parent="NxOc04dK2FlnX5Qw7O3w-116">
          <mxGeometry width="60" height="60" as="geometry" />
        </mxCell>
        <mxCell id="NxOc04dK2FlnX5Qw7O3w-119" value="&lt;font style=&quot;font-size: 18px;&quot;&gt;II (b). Validate&lt;/font&gt;" style="text;html=1;align=center;verticalAlign=middle;resizable=0;points=[];autosize=1;strokeColor=none;fillColor=none;" vertex="1" parent="1">
          <mxGeometry x="1013.25" y="-70" width="130" height="30" as="geometry" />
        </mxCell>
        <mxCell id="NxOc04dK2FlnX5Qw7O3w-120" value="" style="rounded=0;whiteSpace=wrap;html=1;fillColor=#f5f5f5;fontColor=#333333;strokeColor=#666666;" vertex="1" parent="1">
          <mxGeometry x="40" y="940" width="340" height="470" as="geometry" />
        </mxCell>
        <mxCell id="NxOc04dK2FlnX5Qw7O3w-121" value="" style="group" vertex="1" connectable="0" parent="1">
          <mxGeometry x="120" y="1010" width="170" height="281" as="geometry" />
        </mxCell>
        <mxCell id="NxOc04dK2FlnX5Qw7O3w-122" value="" style="rounded=0;whiteSpace=wrap;html=1;dashed=1;dashPattern=8 8;labelPosition=center;verticalLabelPosition=top;align=center;verticalAlign=bottom;" vertex="1" parent="NxOc04dK2FlnX5Qw7O3w-121">
          <mxGeometry width="170" height="281" as="geometry" />
        </mxCell>
        <mxCell id="NxOc04dK2FlnX5Qw7O3w-123" value="&lt;font color=&quot;#000000&quot;&gt;GLM&lt;/font&gt;" style="rounded=1;whiteSpace=wrap;html=1;fontSize=16;labelBackgroundColor=none;fillColor=#fff2cc;strokeColor=#d6b656;" vertex="1" parent="NxOc04dK2FlnX5Qw7O3w-121">
          <mxGeometry x="44" y="9" width="80" height="60" as="geometry" />
        </mxCell>
        <mxCell id="NxOc04dK2FlnX5Qw7O3w-124" style="edgeStyle=orthogonalEdgeStyle;rounded=0;orthogonalLoop=1;jettySize=auto;html=1;exitX=0.5;exitY=0;exitDx=0;exitDy=0;" edge="1" parent="NxOc04dK2FlnX5Qw7O3w-121" source="NxOc04dK2FlnX5Qw7O3w-126" target="NxOc04dK2FlnX5Qw7O3w-123">
          <mxGeometry relative="1" as="geometry" />
        </mxCell>
        <mxCell id="NxOc04dK2FlnX5Qw7O3w-125" value="Train" style="edgeLabel;html=1;align=center;verticalAlign=middle;resizable=0;points=[];fontSize=16;" vertex="1" connectable="0" parent="NxOc04dK2FlnX5Qw7O3w-124">
          <mxGeometry x="-0.2244" y="2" relative="1" as="geometry">
            <mxPoint as="offset" />
          </mxGeometry>
        </mxCell>
        <mxCell id="NxOc04dK2FlnX5Qw7O3w-126" value="&lt;font color=&quot;#000000&quot;&gt;Preprocessed dataset&lt;/font&gt;" style="rounded=0;whiteSpace=wrap;html=1;fontSize=16;labelPosition=center;verticalLabelPosition=bottom;align=center;verticalAlign=top;labelBackgroundColor=none;" vertex="1" parent="NxOc04dK2FlnX5Qw7O3w-121">
          <mxGeometry x="17" y="116" width="134.5" height="120" as="geometry" />
        </mxCell>
        <mxCell id="NxOc04dK2FlnX5Qw7O3w-127" value="" style="group" vertex="1" connectable="0" parent="NxOc04dK2FlnX5Qw7O3w-121">
          <mxGeometry x="36" y="133" width="100" height="84" as="geometry" />
        </mxCell>
        <mxCell id="NxOc04dK2FlnX5Qw7O3w-128" style="edgeStyle=none;curved=1;rounded=0;orthogonalLoop=1;jettySize=auto;html=1;exitX=1;exitY=0.5;exitDx=0;exitDy=0;entryX=0;entryY=0.5;entryDx=0;entryDy=0;fontSize=12;startSize=8;endSize=8;endArrow=none;endFill=0;labelBackgroundColor=none;fontColor=default;strokeColor=#0B4D6A;" edge="1" parent="NxOc04dK2FlnX5Qw7O3w-127">
          <mxGeometry relative="1" as="geometry">
            <mxPoint x="20" y="42" as="sourcePoint" />
            <mxPoint x="40" y="42" as="targetPoint" />
          </mxGeometry>
        </mxCell>
        <mxCell id="NxOc04dK2FlnX5Qw7O3w-129" value="" style="ellipse;whiteSpace=wrap;html=1;aspect=fixed;fontSize=16;labelBackgroundColor=none;fillColor=#ffe6cc;strokeColor=#d79b00;" vertex="1" parent="NxOc04dK2FlnX5Qw7O3w-127">
          <mxGeometry y="31" width="20" height="20" as="geometry" />
        </mxCell>
        <mxCell id="NxOc04dK2FlnX5Qw7O3w-130" style="edgeStyle=none;curved=1;rounded=0;orthogonalLoop=1;jettySize=auto;html=1;exitX=1;exitY=0.5;exitDx=0;exitDy=0;entryX=0;entryY=0.5;entryDx=0;entryDy=0;fontSize=12;startSize=8;endSize=8;endArrow=none;endFill=0;labelBackgroundColor=none;fontColor=default;strokeColor=#0B4D6A;" edge="1" parent="NxOc04dK2FlnX5Qw7O3w-127">
          <mxGeometry relative="1" as="geometry">
            <mxPoint x="60" y="42" as="sourcePoint" />
            <mxPoint x="80" y="42" as="targetPoint" />
          </mxGeometry>
        </mxCell>
        <mxCell id="NxOc04dK2FlnX5Qw7O3w-131" value="" style="ellipse;whiteSpace=wrap;html=1;aspect=fixed;fontSize=16;labelBackgroundColor=none;fillColor=#ffe6cc;strokeColor=#d79b00;" vertex="1" parent="NxOc04dK2FlnX5Qw7O3w-127">
          <mxGeometry x="40" y="31" width="20" height="20" as="geometry" />
        </mxCell>
        <mxCell id="NxOc04dK2FlnX5Qw7O3w-132" value="" style="ellipse;whiteSpace=wrap;html=1;aspect=fixed;fontSize=16;labelBackgroundColor=none;fillColor=#ffe6cc;strokeColor=#d79b00;" vertex="1" parent="NxOc04dK2FlnX5Qw7O3w-127">
          <mxGeometry x="80" y="31" width="20" height="20" as="geometry" />
        </mxCell>
        <mxCell id="NxOc04dK2FlnX5Qw7O3w-133" value="" style="ellipse;whiteSpace=wrap;html=1;aspect=fixed;fontSize=16;labelBackgroundColor=none;fillColor=#dae8fc;strokeColor=#6c8ebf;" vertex="1" parent="NxOc04dK2FlnX5Qw7O3w-127">
          <mxGeometry y="64" width="20" height="20" as="geometry" />
        </mxCell>
        <mxCell id="NxOc04dK2FlnX5Qw7O3w-134" value="" style="ellipse;whiteSpace=wrap;html=1;aspect=fixed;fontSize=16;labelBackgroundColor=none;fillColor=#dae8fc;strokeColor=#6c8ebf;" vertex="1" parent="NxOc04dK2FlnX5Qw7O3w-127">
          <mxGeometry x="40" y="64" width="20" height="20" as="geometry" />
        </mxCell>
        <mxCell id="NxOc04dK2FlnX5Qw7O3w-135" style="edgeStyle=orthogonalEdgeStyle;rounded=0;orthogonalLoop=1;jettySize=auto;html=1;exitX=0.5;exitY=1;exitDx=0;exitDy=0;entryX=0.5;entryY=0;entryDx=0;entryDy=0;endArrow=none;endFill=0;" edge="1" parent="NxOc04dK2FlnX5Qw7O3w-127" source="NxOc04dK2FlnX5Qw7O3w-131" target="NxOc04dK2FlnX5Qw7O3w-134">
          <mxGeometry relative="1" as="geometry" />
        </mxCell>
        <mxCell id="NxOc04dK2FlnX5Qw7O3w-136" value="" style="ellipse;whiteSpace=wrap;html=1;aspect=fixed;fontSize=16;labelBackgroundColor=none;fillColor=#dae8fc;strokeColor=#6c8ebf;" vertex="1" parent="NxOc04dK2FlnX5Qw7O3w-127">
          <mxGeometry x="80" y="64" width="20" height="20" as="geometry" />
        </mxCell>
        <mxCell id="NxOc04dK2FlnX5Qw7O3w-137" style="edgeStyle=orthogonalEdgeStyle;rounded=0;orthogonalLoop=1;jettySize=auto;html=1;exitX=0.5;exitY=1;exitDx=0;exitDy=0;entryX=0.5;entryY=0;entryDx=0;entryDy=0;endArrow=none;endFill=0;" edge="1" parent="NxOc04dK2FlnX5Qw7O3w-127" source="NxOc04dK2FlnX5Qw7O3w-132" target="NxOc04dK2FlnX5Qw7O3w-136">
          <mxGeometry relative="1" as="geometry" />
        </mxCell>
        <mxCell id="NxOc04dK2FlnX5Qw7O3w-138" value="" style="ellipse;whiteSpace=wrap;html=1;aspect=fixed;fontSize=16;labelBackgroundColor=none;fillColor=#dae8fc;strokeColor=#6c8ebf;" vertex="1" parent="NxOc04dK2FlnX5Qw7O3w-127">
          <mxGeometry x="1" width="20" height="20" as="geometry" />
        </mxCell>
        <mxCell id="NxOc04dK2FlnX5Qw7O3w-139" style="edgeStyle=orthogonalEdgeStyle;rounded=0;orthogonalLoop=1;jettySize=auto;html=1;exitX=0.5;exitY=0;exitDx=0;exitDy=0;entryX=0.5;entryY=1;entryDx=0;entryDy=0;endArrow=none;endFill=0;" edge="1" parent="NxOc04dK2FlnX5Qw7O3w-127" source="NxOc04dK2FlnX5Qw7O3w-129" target="NxOc04dK2FlnX5Qw7O3w-138">
          <mxGeometry relative="1" as="geometry" />
        </mxCell>
        <mxCell id="NxOc04dK2FlnX5Qw7O3w-140" value="" style="ellipse;whiteSpace=wrap;html=1;aspect=fixed;fontSize=16;labelBackgroundColor=none;fillColor=#dae8fc;strokeColor=#6c8ebf;" vertex="1" parent="NxOc04dK2FlnX5Qw7O3w-127">
          <mxGeometry x="39.75" y="1" width="20" height="20" as="geometry" />
        </mxCell>
        <mxCell id="NxOc04dK2FlnX5Qw7O3w-141" value="" style="ellipse;whiteSpace=wrap;html=1;aspect=fixed;fontSize=16;labelBackgroundColor=none;fillColor=#dae8fc;strokeColor=#6c8ebf;" vertex="1" parent="NxOc04dK2FlnX5Qw7O3w-127">
          <mxGeometry x="79" width="20" height="20" as="geometry" />
        </mxCell>
        <mxCell id="NxOc04dK2FlnX5Qw7O3w-142" style="rounded=0;orthogonalLoop=1;jettySize=auto;html=1;exitX=0.5;exitY=0;exitDx=0;exitDy=0;entryX=0.5;entryY=1;entryDx=0;entryDy=0;strokeColor=none;endArrow=none;endFill=0;" edge="1" parent="NxOc04dK2FlnX5Qw7O3w-127" source="NxOc04dK2FlnX5Qw7O3w-131" target="NxOc04dK2FlnX5Qw7O3w-140">
          <mxGeometry relative="1" as="geometry" />
        </mxCell>
        <mxCell id="NxOc04dK2FlnX5Qw7O3w-143" value="" style="endArrow=none;html=1;rounded=0;entryX=0.5;entryY=1;entryDx=0;entryDy=0;exitX=0.5;exitY=0;exitDx=0;exitDy=0;" edge="1" parent="NxOc04dK2FlnX5Qw7O3w-127" source="NxOc04dK2FlnX5Qw7O3w-131" target="NxOc04dK2FlnX5Qw7O3w-140">
          <mxGeometry width="50" height="50" relative="1" as="geometry">
            <mxPoint x="-194" y="123" as="sourcePoint" />
            <mxPoint x="-144" y="73" as="targetPoint" />
          </mxGeometry>
        </mxCell>
        <mxCell id="NxOc04dK2FlnX5Qw7O3w-144" style="edgeStyle=orthogonalEdgeStyle;rounded=0;orthogonalLoop=1;jettySize=auto;html=1;exitX=0.5;exitY=0;exitDx=0;exitDy=0;entryX=0.5;entryY=1;entryDx=0;entryDy=0;endArrow=none;endFill=0;" edge="1" parent="NxOc04dK2FlnX5Qw7O3w-127" source="NxOc04dK2FlnX5Qw7O3w-132" target="NxOc04dK2FlnX5Qw7O3w-141">
          <mxGeometry relative="1" as="geometry" />
        </mxCell>
        <mxCell id="NxOc04dK2FlnX5Qw7O3w-145" value="" style="endArrow=none;html=1;rounded=0;entryX=0.5;entryY=1;entryDx=0;entryDy=0;" edge="1" parent="NxOc04dK2FlnX5Qw7O3w-127" source="NxOc04dK2FlnX5Qw7O3w-133" target="NxOc04dK2FlnX5Qw7O3w-129">
          <mxGeometry width="50" height="50" relative="1" as="geometry">
            <mxPoint x="-194" y="123" as="sourcePoint" />
            <mxPoint x="-144" y="73" as="targetPoint" />
          </mxGeometry>
        </mxCell>
        <mxCell id="NxOc04dK2FlnX5Qw7O3w-146" value="&lt;font style=&quot;font-size: 16px;&quot;&gt;Pubmed papers&lt;/font&gt;" style="rounded=0;whiteSpace=wrap;html=1;fillColor=#ffe6cc;strokeColor=#d79b00;" vertex="1" parent="1">
          <mxGeometry x="205" y="1310" width="130" height="60" as="geometry" />
        </mxCell>
        <mxCell id="NxOc04dK2FlnX5Qw7O3w-147" value="&lt;font style=&quot;font-size: 16px;&quot;&gt;UMLS: seed KG&lt;/font&gt;" style="rounded=0;whiteSpace=wrap;html=1;fillColor=#dae8fc;strokeColor=#6c8ebf;" vertex="1" parent="1">
          <mxGeometry x="75" y="1310" width="130" height="60" as="geometry" />
        </mxCell>
        <mxCell id="NxOc04dK2FlnX5Qw7O3w-148" value="&lt;font style=&quot;font-size: 18px;&quot;&gt;I. Train GLM&lt;/font&gt;" style="text;html=1;align=center;verticalAlign=middle;whiteSpace=wrap;rounded=0;" vertex="1" parent="1">
          <mxGeometry x="240" y="960" width="130" height="30" as="geometry" />
        </mxCell>
        <mxCell id="NxOc04dK2FlnX5Qw7O3w-149" value="" style="rounded=0;whiteSpace=wrap;html=1;fillColor=#f5f5f5;fontColor=#333333;strokeColor=#666666;" vertex="1" parent="1">
          <mxGeometry x="470" y="940" width="320" height="500" as="geometry" />
        </mxCell>
        <mxCell id="NxOc04dK2FlnX5Qw7O3w-150" value="" style="shape=flexArrow;endArrow=classic;html=1;rounded=0;fillColor=#fff2cc;strokeColor=#d6b656;" edge="1" parent="1">
          <mxGeometry width="50" height="50" relative="1" as="geometry">
            <mxPoint x="557" y="1200" as="sourcePoint" />
            <mxPoint x="557" y="1340" as="targetPoint" />
          </mxGeometry>
        </mxCell>
        <mxCell id="NxOc04dK2FlnX5Qw7O3w-151" style="rounded=0;orthogonalLoop=1;jettySize=auto;html=1;exitX=0.5;exitY=0;exitDx=0;exitDy=0;entryX=0.5;entryY=1;entryDx=0;entryDy=0;strokeColor=none;endArrow=none;endFill=0;" edge="1" parent="1">
          <mxGeometry relative="1" as="geometry">
            <mxPoint x="716.5" y="1134" as="sourcePoint" />
            <mxPoint x="716.25" y="1124" as="targetPoint" />
          </mxGeometry>
        </mxCell>
        <mxCell id="NxOc04dK2FlnX5Qw7O3w-152" value="&lt;font color=&quot;#000000&quot;&gt;Trained GLM&lt;/font&gt;" style="rounded=1;whiteSpace=wrap;html=1;fontSize=16;labelBackgroundColor=none;fillColor=#fff2cc;strokeColor=#d6b656;" vertex="1" parent="1">
          <mxGeometry x="515" y="959.5" width="80" height="60" as="geometry" />
        </mxCell>
        <mxCell id="NxOc04dK2FlnX5Qw7O3w-153" value="&lt;font style=&quot;font-size: 16px;&quot;&gt;LLM&lt;/font&gt;" style="rounded=1;whiteSpace=wrap;html=1;fillColor=#d5e8d4;strokeColor=#82b366;" vertex="1" parent="1">
          <mxGeometry x="518" y="1250" width="80" height="59.5" as="geometry" />
        </mxCell>
        <mxCell id="NxOc04dK2FlnX5Qw7O3w-154" value="&lt;font style=&quot;font-size: 18px;&quot;&gt;II (a). Extract &amp;amp; Filter&lt;/font&gt;" style="text;html=1;align=center;verticalAlign=middle;resizable=0;points=[];autosize=1;strokeColor=none;fillColor=none;" vertex="1" parent="1">
          <mxGeometry x="603.25" y="950" width="190" height="30" as="geometry" />
        </mxCell>
        <mxCell id="NxOc04dK2FlnX5Qw7O3w-155" value="" style="shape=flexArrow;endArrow=classic;html=1;rounded=0;fillColor=#fff2cc;strokeColor=#d6b656;" edge="1" parent="1">
          <mxGeometry width="50" height="50" relative="1" as="geometry">
            <mxPoint x="556" y="1019.5" as="sourcePoint" />
            <mxPoint x="556" y="1119" as="targetPoint" />
          </mxGeometry>
        </mxCell>
        <mxCell id="NxOc04dK2FlnX5Qw7O3w-156" value="" style="group" vertex="1" connectable="0" parent="1">
          <mxGeometry x="498" y="1129" width="60" height="72" as="geometry" />
        </mxCell>
        <mxCell id="NxOc04dK2FlnX5Qw7O3w-157" value="" style="group" vertex="1" connectable="0" parent="NxOc04dK2FlnX5Qw7O3w-156">
          <mxGeometry width="20" height="60" as="geometry" />
        </mxCell>
        <mxCell id="NxOc04dK2FlnX5Qw7O3w-158" value="" style="ellipse;whiteSpace=wrap;html=1;aspect=fixed;fontSize=16;labelBackgroundColor=none;fillColor=#ffe6cc;strokeColor=#d79b00;" vertex="1" parent="NxOc04dK2FlnX5Qw7O3w-157">
          <mxGeometry y="40" width="20" height="20" as="geometry" />
        </mxCell>
        <mxCell id="NxOc04dK2FlnX5Qw7O3w-159" value="" style="ellipse;whiteSpace=wrap;html=1;aspect=fixed;fontSize=16;labelBackgroundColor=none;fillColor=#dae8fc;strokeColor=#6c8ebf;" vertex="1" parent="NxOc04dK2FlnX5Qw7O3w-157">
          <mxGeometry width="20" height="20" as="geometry" />
        </mxCell>
        <mxCell id="NxOc04dK2FlnX5Qw7O3w-160" value="" style="edgeStyle=orthogonalEdgeStyle;rounded=0;orthogonalLoop=1;jettySize=auto;html=1;" edge="1" parent="NxOc04dK2FlnX5Qw7O3w-157" source="NxOc04dK2FlnX5Qw7O3w-158" target="NxOc04dK2FlnX5Qw7O3w-159">
          <mxGeometry relative="1" as="geometry" />
        </mxCell>
        <mxCell id="NxOc04dK2FlnX5Qw7O3w-161" value="" style="group" vertex="1" connectable="0" parent="NxOc04dK2FlnX5Qw7O3w-156">
          <mxGeometry x="20" y="12" width="20" height="60" as="geometry" />
        </mxCell>
        <mxCell id="NxOc04dK2FlnX5Qw7O3w-162" value="" style="ellipse;whiteSpace=wrap;html=1;aspect=fixed;fontSize=16;labelBackgroundColor=none;fillColor=#ffe6cc;strokeColor=#d79b00;" vertex="1" parent="NxOc04dK2FlnX5Qw7O3w-161">
          <mxGeometry y="40" width="20" height="20" as="geometry" />
        </mxCell>
        <mxCell id="NxOc04dK2FlnX5Qw7O3w-163" value="" style="ellipse;whiteSpace=wrap;html=1;aspect=fixed;fontSize=16;labelBackgroundColor=none;fillColor=#dae8fc;strokeColor=#6c8ebf;" vertex="1" parent="NxOc04dK2FlnX5Qw7O3w-161">
          <mxGeometry width="20" height="20" as="geometry" />
        </mxCell>
        <mxCell id="NxOc04dK2FlnX5Qw7O3w-164" value="" style="edgeStyle=orthogonalEdgeStyle;rounded=0;orthogonalLoop=1;jettySize=auto;html=1;" edge="1" parent="NxOc04dK2FlnX5Qw7O3w-161" source="NxOc04dK2FlnX5Qw7O3w-162" target="NxOc04dK2FlnX5Qw7O3w-163">
          <mxGeometry relative="1" as="geometry" />
        </mxCell>
        <mxCell id="NxOc04dK2FlnX5Qw7O3w-165" value="" style="group" vertex="1" connectable="0" parent="NxOc04dK2FlnX5Qw7O3w-156">
          <mxGeometry x="40" width="20" height="60" as="geometry" />
        </mxCell>
        <mxCell id="NxOc04dK2FlnX5Qw7O3w-166" value="" style="ellipse;whiteSpace=wrap;html=1;aspect=fixed;fontSize=16;labelBackgroundColor=none;fillColor=#ffe6cc;strokeColor=#d79b00;" vertex="1" parent="NxOc04dK2FlnX5Qw7O3w-165">
          <mxGeometry y="40" width="20" height="20" as="geometry" />
        </mxCell>
        <mxCell id="NxOc04dK2FlnX5Qw7O3w-167" value="" style="ellipse;whiteSpace=wrap;html=1;aspect=fixed;fontSize=16;labelBackgroundColor=none;fillColor=#dae8fc;strokeColor=#6c8ebf;" vertex="1" parent="NxOc04dK2FlnX5Qw7O3w-165">
          <mxGeometry width="20" height="20" as="geometry" />
        </mxCell>
        <mxCell id="NxOc04dK2FlnX5Qw7O3w-168" value="" style="edgeStyle=orthogonalEdgeStyle;rounded=0;orthogonalLoop=1;jettySize=auto;html=1;" edge="1" parent="NxOc04dK2FlnX5Qw7O3w-165" source="NxOc04dK2FlnX5Qw7O3w-166" target="NxOc04dK2FlnX5Qw7O3w-167">
          <mxGeometry relative="1" as="geometry" />
        </mxCell>
        <mxCell id="NxOc04dK2FlnX5Qw7O3w-169" value="&lt;font style=&quot;font-size: 16px;&quot;&gt;Pubmed papers&lt;/font&gt;" style="rounded=0;whiteSpace=wrap;html=1;fillColor=#ffe6cc;strokeColor=#d79b00;" vertex="1" parent="1">
          <mxGeometry x="490" y="1028" width="130" height="60" as="geometry" />
        </mxCell>
        <mxCell id="NxOc04dK2FlnX5Qw7O3w-170" value="" style="group" vertex="1" connectable="0" parent="1">
          <mxGeometry x="565" y="1129" width="63" height="110" as="geometry" />
        </mxCell>
        <mxCell id="NxOc04dK2FlnX5Qw7O3w-171" value="" style="group" vertex="1" connectable="0" parent="NxOc04dK2FlnX5Qw7O3w-170">
          <mxGeometry width="63" height="110" as="geometry" />
        </mxCell>
        <mxCell id="NxOc04dK2FlnX5Qw7O3w-172" value="" style="ellipse;whiteSpace=wrap;html=1;aspect=fixed;fontSize=16;labelBackgroundColor=none;fillColor=#ffe6cc;strokeColor=#d79b00;" vertex="1" parent="NxOc04dK2FlnX5Qw7O3w-171">
          <mxGeometry x="-1" y="40" width="20" height="20" as="geometry" />
        </mxCell>
        <mxCell id="NxOc04dK2FlnX5Qw7O3w-173" value="" style="ellipse;whiteSpace=wrap;html=1;aspect=fixed;fontSize=16;labelBackgroundColor=none;fillColor=#dae8fc;strokeColor=#6c8ebf;" vertex="1" parent="NxOc04dK2FlnX5Qw7O3w-171">
          <mxGeometry width="20" height="20" as="geometry" />
        </mxCell>
        <mxCell id="NxOc04dK2FlnX5Qw7O3w-174" value="" style="edgeStyle=orthogonalEdgeStyle;rounded=0;orthogonalLoop=1;jettySize=auto;html=1;" edge="1" parent="NxOc04dK2FlnX5Qw7O3w-171" source="NxOc04dK2FlnX5Qw7O3w-172">
          <mxGeometry relative="1" as="geometry">
            <mxPoint x="9" y="20" as="targetPoint" />
          </mxGeometry>
        </mxCell>
        <mxCell id="NxOc04dK2FlnX5Qw7O3w-175" value="" style="group" vertex="1" connectable="0" parent="NxOc04dK2FlnX5Qw7O3w-170">
          <mxGeometry x="19" y="12" width="20" height="60" as="geometry" />
        </mxCell>
        <mxCell id="NxOc04dK2FlnX5Qw7O3w-176" value="" style="ellipse;whiteSpace=wrap;html=1;aspect=fixed;fontSize=16;labelBackgroundColor=none;fillColor=#ffe6cc;strokeColor=#d79b00;" vertex="1" parent="NxOc04dK2FlnX5Qw7O3w-175">
          <mxGeometry y="40" width="20" height="20" as="geometry" />
        </mxCell>
        <mxCell id="NxOc04dK2FlnX5Qw7O3w-177" value="" style="ellipse;whiteSpace=wrap;html=1;aspect=fixed;fontSize=16;labelBackgroundColor=none;fillColor=#dae8fc;strokeColor=#6c8ebf;" vertex="1" parent="NxOc04dK2FlnX5Qw7O3w-175">
          <mxGeometry width="20" height="20" as="geometry" />
        </mxCell>
        <mxCell id="NxOc04dK2FlnX5Qw7O3w-178" value="" style="edgeStyle=orthogonalEdgeStyle;rounded=0;orthogonalLoop=1;jettySize=auto;html=1;" edge="1" parent="NxOc04dK2FlnX5Qw7O3w-175" source="NxOc04dK2FlnX5Qw7O3w-176" target="NxOc04dK2FlnX5Qw7O3w-177">
          <mxGeometry relative="1" as="geometry" />
        </mxCell>
        <mxCell id="NxOc04dK2FlnX5Qw7O3w-179" value="" style="group" vertex="1" connectable="0" parent="NxOc04dK2FlnX5Qw7O3w-170">
          <mxGeometry x="40" width="20" height="60" as="geometry" />
        </mxCell>
        <mxCell id="NxOc04dK2FlnX5Qw7O3w-180" value="" style="ellipse;whiteSpace=wrap;html=1;aspect=fixed;fontSize=16;labelBackgroundColor=none;fillColor=#ffe6cc;strokeColor=#d79b00;" vertex="1" parent="NxOc04dK2FlnX5Qw7O3w-179">
          <mxGeometry x="-1" y="40" width="20" height="20" as="geometry" />
        </mxCell>
        <mxCell id="NxOc04dK2FlnX5Qw7O3w-181" value="" style="ellipse;whiteSpace=wrap;html=1;aspect=fixed;fontSize=16;labelBackgroundColor=none;fillColor=#dae8fc;strokeColor=#6c8ebf;" vertex="1" parent="NxOc04dK2FlnX5Qw7O3w-179">
          <mxGeometry width="20" height="20" as="geometry" />
        </mxCell>
        <mxCell id="NxOc04dK2FlnX5Qw7O3w-182" value="" style="edgeStyle=orthogonalEdgeStyle;rounded=0;orthogonalLoop=1;jettySize=auto;html=1;" edge="1" parent="NxOc04dK2FlnX5Qw7O3w-179" source="NxOc04dK2FlnX5Qw7O3w-180">
          <mxGeometry relative="1" as="geometry">
            <mxPoint x="9" y="20" as="targetPoint" />
          </mxGeometry>
        </mxCell>
        <mxCell id="NxOc04dK2FlnX5Qw7O3w-183" value="" style="group" vertex="1" connectable="0" parent="1">
          <mxGeometry x="530" y="1340" width="60" height="72" as="geometry" />
        </mxCell>
        <mxCell id="NxOc04dK2FlnX5Qw7O3w-184" value="" style="group" vertex="1" connectable="0" parent="NxOc04dK2FlnX5Qw7O3w-183">
          <mxGeometry width="20" height="60" as="geometry" />
        </mxCell>
        <mxCell id="NxOc04dK2FlnX5Qw7O3w-185" value="" style="ellipse;whiteSpace=wrap;html=1;aspect=fixed;fontSize=16;labelBackgroundColor=none;fillColor=#ffe6cc;strokeColor=#d79b00;" vertex="1" parent="NxOc04dK2FlnX5Qw7O3w-184">
          <mxGeometry y="40" width="20" height="20" as="geometry" />
        </mxCell>
        <mxCell id="NxOc04dK2FlnX5Qw7O3w-186" value="" style="ellipse;whiteSpace=wrap;html=1;aspect=fixed;fontSize=16;labelBackgroundColor=none;fillColor=#dae8fc;strokeColor=#6c8ebf;" vertex="1" parent="NxOc04dK2FlnX5Qw7O3w-184">
          <mxGeometry width="20" height="20" as="geometry" />
        </mxCell>
        <mxCell id="NxOc04dK2FlnX5Qw7O3w-187" value="" style="edgeStyle=orthogonalEdgeStyle;rounded=0;orthogonalLoop=1;jettySize=auto;html=1;" edge="1" parent="NxOc04dK2FlnX5Qw7O3w-184" source="NxOc04dK2FlnX5Qw7O3w-185" target="NxOc04dK2FlnX5Qw7O3w-186">
          <mxGeometry relative="1" as="geometry" />
        </mxCell>
        <mxCell id="NxOc04dK2FlnX5Qw7O3w-188" value="" style="group" vertex="1" connectable="0" parent="NxOc04dK2FlnX5Qw7O3w-183">
          <mxGeometry x="20" y="12" width="20" height="60" as="geometry" />
        </mxCell>
        <mxCell id="NxOc04dK2FlnX5Qw7O3w-189" value="" style="ellipse;whiteSpace=wrap;html=1;aspect=fixed;fontSize=16;labelBackgroundColor=none;fillColor=#ffe6cc;strokeColor=#d79b00;" vertex="1" parent="NxOc04dK2FlnX5Qw7O3w-188">
          <mxGeometry y="40" width="20" height="20" as="geometry" />
        </mxCell>
        <mxCell id="NxOc04dK2FlnX5Qw7O3w-190" value="" style="ellipse;whiteSpace=wrap;html=1;aspect=fixed;fontSize=16;labelBackgroundColor=none;fillColor=#dae8fc;strokeColor=#6c8ebf;" vertex="1" parent="NxOc04dK2FlnX5Qw7O3w-188">
          <mxGeometry width="20" height="20" as="geometry" />
        </mxCell>
        <mxCell id="NxOc04dK2FlnX5Qw7O3w-191" value="" style="edgeStyle=orthogonalEdgeStyle;rounded=0;orthogonalLoop=1;jettySize=auto;html=1;" edge="1" parent="NxOc04dK2FlnX5Qw7O3w-188" source="NxOc04dK2FlnX5Qw7O3w-189" target="NxOc04dK2FlnX5Qw7O3w-190">
          <mxGeometry relative="1" as="geometry" />
        </mxCell>
        <mxCell id="NxOc04dK2FlnX5Qw7O3w-192" value="" style="group" vertex="1" connectable="0" parent="NxOc04dK2FlnX5Qw7O3w-183">
          <mxGeometry x="40" width="20" height="60" as="geometry" />
        </mxCell>
        <mxCell id="NxOc04dK2FlnX5Qw7O3w-193" value="" style="ellipse;whiteSpace=wrap;html=1;aspect=fixed;fontSize=16;labelBackgroundColor=none;fillColor=#ffe6cc;strokeColor=#d79b00;" vertex="1" parent="NxOc04dK2FlnX5Qw7O3w-192">
          <mxGeometry y="40" width="20" height="20" as="geometry" />
        </mxCell>
        <mxCell id="NxOc04dK2FlnX5Qw7O3w-194" value="" style="ellipse;whiteSpace=wrap;html=1;aspect=fixed;fontSize=16;labelBackgroundColor=none;fillColor=#dae8fc;strokeColor=#6c8ebf;" vertex="1" parent="NxOc04dK2FlnX5Qw7O3w-192">
          <mxGeometry width="20" height="20" as="geometry" />
        </mxCell>
        <mxCell id="NxOc04dK2FlnX5Qw7O3w-195" value="" style="edgeStyle=orthogonalEdgeStyle;rounded=0;orthogonalLoop=1;jettySize=auto;html=1;" edge="1" parent="NxOc04dK2FlnX5Qw7O3w-192" source="NxOc04dK2FlnX5Qw7O3w-193" target="NxOc04dK2FlnX5Qw7O3w-194">
          <mxGeometry relative="1" as="geometry" />
        </mxCell>
        <mxCell id="NxOc04dK2FlnX5Qw7O3w-196" value="&lt;font style=&quot;font-size: 16px;&quot;&gt;Filtered triples with multiotken tail&lt;/font&gt;" style="text;html=1;align=center;verticalAlign=middle;whiteSpace=wrap;rounded=0;" vertex="1" parent="1">
          <mxGeometry x="631" y="1350" width="139" height="30" as="geometry" />
        </mxCell>
        <mxCell id="NxOc04dK2FlnX5Qw7O3w-197" value="&lt;font&gt;&lt;span&gt;Raw triples wtih one token tail&lt;/span&gt;&lt;/font&gt;" style="text;html=1;align=center;verticalAlign=middle;whiteSpace=wrap;rounded=0;fontSize=16;" vertex="1" parent="1">
          <mxGeometry x="638" y="1146.5" width="122" height="26" as="geometry" />
        </mxCell>
        <mxCell id="NxOc04dK2FlnX5Qw7O3w-199" value="" style="rounded=0;whiteSpace=wrap;html=1;fillColor=#f5f5f5;fontColor=#333333;strokeColor=#666666;" vertex="1" parent="1">
          <mxGeometry x="860" y="940" width="400" height="500" as="geometry" />
        </mxCell>
        <mxCell id="NxOc04dK2FlnX5Qw7O3w-200" value="&lt;font style=&quot;font-size: 16px;&quot;&gt;GraphRAG&lt;/font&gt;" style="rounded=1;whiteSpace=wrap;html=1;fillColor=#f8cecc;strokeColor=#b85450;verticalAlign=top;opacity=70;" vertex="1" parent="1">
          <mxGeometry x="883.25" y="1090" width="350" height="150" as="geometry" />
        </mxCell>
        <mxCell id="NxOc04dK2FlnX5Qw7O3w-201" value="&lt;font style=&quot;font-size: 16px;&quot;&gt;Expanded KG&lt;/font&gt;" style="rounded=0;whiteSpace=wrap;html=1;fillColor=#dae8fc;strokeColor=#6c8ebf;" vertex="1" parent="1">
          <mxGeometry x="900" y="1141" width="180" height="60" as="geometry" />
        </mxCell>
        <mxCell id="NxOc04dK2FlnX5Qw7O3w-202" value="" style="shape=flexArrow;endArrow=classic;html=1;rounded=0;fillColor=#fff2cc;strokeColor=#d6b656;" edge="1" parent="1">
          <mxGeometry width="50" height="50" relative="1" as="geometry">
            <mxPoint x="1057.83" y="1240" as="sourcePoint" />
            <mxPoint x="1058" y="1290" as="targetPoint" />
          </mxGeometry>
        </mxCell>
        <mxCell id="NxOc04dK2FlnX5Qw7O3w-203" value="" style="group" vertex="1" connectable="0" parent="1">
          <mxGeometry x="1082.5" y="1141" width="130" height="60" as="geometry" />
        </mxCell>
        <mxCell id="NxOc04dK2FlnX5Qw7O3w-204" value="&lt;font style=&quot;font-size: 16px;&quot;&gt;MCQ&lt;/font&gt;" style="rounded=0;whiteSpace=wrap;html=1;fillColor=#cdeb8b;strokeColor=#36393d;" vertex="1" parent="NxOc04dK2FlnX5Qw7O3w-203">
          <mxGeometry width="130" height="60" as="geometry" />
        </mxCell>
        <mxCell id="NxOc04dK2FlnX5Qw7O3w-205" value="" style="shape=image;html=1;verticalAlign=top;verticalLabelPosition=bottom;labelBackgroundColor=#ffffff;imageAspect=0;aspect=fixed;image=https://cdn0.iconfinder.com/data/icons/evericons-24px-vol-1/24/question-128.png" vertex="1" parent="NxOc04dK2FlnX5Qw7O3w-203">
          <mxGeometry x="92.5" y="10.75" width="34.5" height="34.5" as="geometry" />
        </mxCell>
        <mxCell id="NxOc04dK2FlnX5Qw7O3w-206" value="" style="image;sketch=0;aspect=fixed;html=1;points=[];align=center;fontSize=12;image=img/lib/mscae/Resource_Graph_Explorer.svg;" vertex="1" parent="1">
          <mxGeometry x="1042" y="1154.52" width="34.76" height="35.48" as="geometry" />
        </mxCell>
        <mxCell id="NxOc04dK2FlnX5Qw7O3w-207" value="&lt;font style=&quot;font-size: 16px;&quot;&gt;Accuracy:&lt;/font&gt;&lt;div&gt;&lt;font style=&quot;font-size: 16px;&quot;&gt;# correct answers&lt;/font&gt;&lt;/div&gt;" style="text;html=1;align=center;verticalAlign=middle;whiteSpace=wrap;rounded=0;" vertex="1" parent="1">
          <mxGeometry x="973.25" y="1300" width="170" height="40" as="geometry" />
        </mxCell>
        <mxCell id="NxOc04dK2FlnX5Qw7O3w-208" value="" style="verticalLabelPosition=bottom;verticalAlign=top;html=1;shape=mxgraph.basic.donut;dx=10;strokeColor=none;fillColor=#10739E;fontSize=10;align=center;fillOpacity=20;" vertex="1" parent="1">
          <mxGeometry x="1028.25" y="1346" width="60" height="60" as="geometry" />
        </mxCell>
        <mxCell id="NxOc04dK2FlnX5Qw7O3w-209" value="%" style="verticalLabelPosition=middle;verticalAlign=middle;html=1;shape=mxgraph.basic.partConcEllipse;startAngle=0;endAngle=0.65;arcWidth=0.2;strokeColor=none;fillColor=#10739E;fontSize=22;fontColor=#10739E;align=center;fontStyle=1;whiteSpace=wrap;" vertex="1" parent="NxOc04dK2FlnX5Qw7O3w-208">
          <mxGeometry width="60" height="60" as="geometry" />
        </mxCell>
        <mxCell id="NxOc04dK2FlnX5Qw7O3w-210" value="&lt;font style=&quot;font-size: 18px;&quot;&gt;II (b). Validate&lt;/font&gt;" style="text;html=1;align=center;verticalAlign=middle;resizable=0;points=[];autosize=1;strokeColor=none;fillColor=none;" vertex="1" parent="1">
          <mxGeometry x="1103.25" y="950" width="130" height="30" as="geometry" />
        </mxCell>
      </root>
    </mxGraphModel>
  </diagram>
</mxfile>
